<?xml version="1.0" standalone="no"?>
<!DOCTYPE svg PUBLIC "-//W3C//DTD SVG 1.1//EN" "http://www.w3.org/Graphics/SVG/1.1/DTD/svg11.dtd" >
<!--
2013-9-30: Created.
-->
<svg>
<metadata>
Created by iconfont
</metadata>
<defs>

<font id="iconfont" horiz-adv-x="1024" >
  <font-face
    font-family="iconfont"
    font-weight="500"
    font-stretch="normal"
    units-per-em="1024"
    ascent="896"
    descent="-128"
  />
    <missing-glyph />
    
    <glyph glyph-name="gouwuche" unicode="&#59174;" d="M995.106743 662.250057c-6.928457 9.034971-17.678629 14.321371-29.035886 14.321371L199.071086 676.571429 166.857143 830.357943C163.322514 847.285029 148.394057 859.428571 131.072 859.428571L36.571429 859.428571C16.3584 859.428571 0 843.072 0 822.857143s16.356571-36.571429 36.571429-36.571429l64.786286 0 139.428571-665.786514c3.536457-16.928914 18.464914-29.070629 35.785143-29.070629L827.428571 91.428571c20.214857 0 36.571429 16.356571 36.571429 36.571429s-16.356571 36.571429-36.571429 36.571429l-521.142857 0-22.965029 109.714286L877.714286 274.285714c16.535771 0 31.036343 11.106743 35.320686 27.106743l88.356571 329.142857C1004.357486 641.499429 1002.000457 653.249829 995.106743 662.250057zM849.678629 347.428571 268.000914 347.428571l-53.6064 256 704 0L849.678629 347.428571zM347.428571 54.857143c-50.428343 0-91.428571-41.000229-91.428571-91.428571s41.000229-91.428571 91.428571-91.428571 91.428571 41.000229 91.428571 91.428571S397.856914 54.857143 347.428571 54.857143zM347.428571-73.142857c-20.178286 0-36.571429 16.393143-36.571429 36.571429s16.393143 36.571429 36.571429 36.571429 36.571429-16.393143 36.571429-36.571429S367.606857-73.142857 347.428571-73.142857zM749.714286 54.857143c-50.428343 0-91.428571-41.000229-91.428571-91.428571s41.000229-91.428571 91.428571-91.428571 91.428571 41.000229 91.428571 91.428571S800.142629 54.857143 749.714286 54.857143zM749.714286-73.142857c-20.178286 0-36.571429 16.393143-36.571429 36.571429s16.393143 36.571429 36.571429 36.571429 36.571429-16.393143 36.571429-36.571429S769.892571-73.142857 749.714286-73.142857z"  horiz-adv-x="1024" />

    
    <glyph glyph-name="xiangshangjiantou" unicode="&#58908;" d="M209.922057 219.682743l38.498826-39.621393 277.219789 285.306978 277.223882-285.306978 38.497802 39.621393L525.640672 544.605997 209.922057 219.682743zM209.922057 219.682743"  horiz-adv-x="1024" />

    
    <glyph glyph-name="gouxuan" unicode="&#58907;" d="M744.512 503.232l-290.688-289.216-41.92 41.664 290.688 289.28L744.512 503.232 744.512 503.232zM321.344 429.248l132.48-131.84-41.92-41.728-132.48 131.904L321.344 429.248 321.344 429.248zM849.216-50.624 174.784-50.624c-62.016 0-112.384 48.704-112.384 108.672L62.4 709.952c0 59.968 50.432 108.672 112.384 108.672l674.432 0c62.016 0 112.384-48.704 112.384-108.672l0-651.904C961.6-1.92 911.232-50.624 849.216-50.624L849.216-50.624zM905.408 709.952c0 29.952-25.216 54.336-56.192 54.336L174.784 764.288c-30.976 0-56.192-24.384-56.192-54.336l0-651.904c0-29.952 25.216-54.336 56.192-54.336l674.432 0c30.976 0 56.192 24.384 56.192 54.336L905.408 709.952 905.408 709.952z"  horiz-adv-x="1024" />

    
    <glyph glyph-name="yuancircle46" unicode="&#59229;" d="M229.76512 101.76512c155.61728-155.61728 408.84224-155.61728 564.45952 0s155.61728 408.84224 0 564.45952-408.84224 155.61728-564.45952 0S74.14784 257.39264 229.76512 101.76512zM260.73088 635.27936c138.55744 138.55744 364.00128 138.55744 502.55872 0 138.53696-138.5472 138.53696-364.00128 0-502.55872-138.55744-138.5472-364.02176-138.5472-502.55872 0C122.17344 271.27808 122.17344 496.73216 260.73088 635.27936z"  horiz-adv-x="1024" />

    
    <glyph glyph-name="xiangxiajiantou" unicode="&#58974;" d="M966.4 572.8c-9.6 9.6-25.6 9.6-35.2 0l-416-416-425.6 416c-9.6 9.6-25.6 9.6-35.2 0-9.6-9.6-9.6-25.6 0-35.2l441.6-432c9.6-9.6 25.6-9.6 35.2 0l435.2 432C976 550.4 976 563.2 966.4 572.8z"  horiz-adv-x="1024" />

    
    <glyph glyph-name="zhangdan" unicode="&#58909;" d="M454.041275 156.789015l-0.004168 0-398.727963 0c-30.498669 0-55.310533 24.814643-55.310533 55.310533L-0.001389 706.109627c0 30.498669 24.811864 55.310533 55.310533 55.310533l398.71268 0c30.498669 0 55.310533-24.811864 55.310533-55.310533l0-494.004521C509.332356 181.610605 484.528829 156.797351 454.041275 156.789015zM55.309144 729.596005c-12.951965 0-23.486379-10.535803-23.486379-23.486379l0-494.011468c0-12.951965 10.535803-23.486379 23.486379-23.486379l398.727963 0-0.004168 0c12.943629 0.006947 23.475264 10.54275 23.475264 23.493326L477.508202 706.109627c0 12.950576-10.535803 23.486379-23.486379 23.486379L55.309144 729.596005zM438.887114 696.199053M526.812369 68.280213l-332.277239 0c-8.78794 0-15.911382 7.124831-15.911382 15.911382 0 8.78794 7.123442 15.911382 15.911382 15.911382L526.812369 100.102978c23.289084 0 42.233522 18.949995 42.233522 42.250195L569.045891 587.748226c0 8.78794 7.123442 15.911382 15.911382 15.911382 8.786551 0 15.911382-7.123442 15.911382-15.911382l0-445.393664C600.868656 101.510438 567.648157 68.280213 526.812369 68.280213zM344.13297 590.502012l-242.829204 0c-8.78794 0-15.911382 7.124831-15.911382 15.911382s7.123442 15.911382 15.911382 15.911382l242.829204 0c8.786551 0 15.911382-7.124831 15.911382-15.911382S352.919521 590.502012 344.13297 590.502012zM408.027202 443.188342l-306.724826 0c-8.78794 0-15.911382 7.124831-15.911382 15.911382 0 8.78794 7.123442 15.911382 15.911382 15.911382l306.724826 0c8.786551 0 15.911382-7.123442 15.911382-15.911382C423.939974 450.313173 416.815142 443.188342 408.027202 443.188342zM408.027202 296.561034l-306.724826 0c-8.78794 0-15.911382 7.124831-15.911382 15.911382 0 8.78794 7.123442 15.911382 15.911382 15.911382l306.724826 0c8.786551 0 15.911382-7.123442 15.911382-15.911382C423.939974 303.685866 416.815142 296.561034 408.027202 296.561034z"  horiz-adv-x="1446" />

    
    <glyph glyph-name="circle" unicode="&#58959;" d="M62 384c0-248.528 201.472-450 450-450s450 201.472 450 450c0 248.528-201.472 450-450 450-248.528 0-450-201.472-450-450z"  horiz-adv-x="1024" />

    
    <glyph glyph-name="jiaoseguanli" unicode="&#58952;" d="M691.712 268.064c-41.728 0-75.648-33.888-75.648-75.552s33.952-75.616 75.648-75.616 75.68 33.952 75.68 75.616-33.952 75.552-75.68 75.552z m0-112.256a36.704 36.704 0 0 0-36.672 36.672 36.704 36.704 0 0 0 73.344 0 36.672 36.672 0 0 0-36.672-36.672z m200.064 76.128c-2.848 15.008-12.48 24.736-24.8 24.736h-1.728a42.816 42.816 0 0 0-42.816 42.752c0 6.176 2.688 13.76 3.712 16.192 5.888 13.12 1.376 29.312-11.648 38.304l-50.08 27.712a34.016 34.016 0 0 1-36.608-7.296c-6.208-6.464-22.784-19.744-34.176-19.744-11.552 0-28.224 13.568-34.432 20.064a33.92 33.92 0 0 1-36.544 7.616l-0.96-0.384-50.976-28-1.184-0.736a30.944 30.944 0 0 1-10.592-37.44c0.416-0.928 3.808-9.248 3.808-16.32a42.88 42.88 0 0 0-42.88-42.752h-2.016c-12.064 0-21.664-9.76-24.512-24.736-0.448-2.24-4.224-23.008-4.224-39.744 0-16.672 3.776-37.44 4.224-39.744 2.848-14.944 12.448-24.64 24.8-24.64h1.696c23.616 0 42.88-19.2 42.88-42.816 0-6.112-2.72-13.76-3.744-16.192-5.888-13.12-1.376-29.248 11.584-38.24l49.152-27.36a33.376 33.376 0 0 1 36.832 7.68c6.048 6.56 23.264 20.928 34.976 20.928 11.904 0 28.864-14.368 35.264-21.312 5.92-6.528 15.072-10.464 24.384-10.464a31.776 31.776 0 0 1 13.632 3.136l49.696 27.36 1.184 0.8a30.848 30.848 0 0 1 10.56 37.376 49.856 49.856 0 0 0-3.776 16.32 42.88 42.88 0 0 0 42.816 42.816h2.016c12.064 0 21.696 9.696 24.512 24.64-0.032 0.192 4.192 22.176 4.192 39.744 0 16.736-3.808 37.504-4.224 39.744z m-37.248-65.888a81.696 81.696 0 0 1-71.104-81.056c0-9.504 2.304-18.56 4.352-24.736l-35.872-19.744c-3.2 3.2-8.352 7.808-14.72 12.576-15.872 11.744-31.232 17.76-45.664 17.76-14.272 0-29.504-5.888-45.248-17.376a147.328 147.328 0 0 1-14.656-12.384l-34.272 19.136c2.048 6.176 4.384 15.328 4.384 24.8a81.696 81.696 0 0 1-71.104 81.056 191.808 191.808 0 0 0-2.464 26.112c0 8.672 1.44 19.488 2.464 26.176a81.792 81.792 0 0 1 71.104 81.056c0 9.504-2.304 18.56-4.352 24.736l37.024 20.32c3.2-3.072 8.352-7.616 14.656-12.128 15.552-11.136 30.528-16.672 44.576-16.672 13.856 0 28.672 5.504 44.128 16.384 6.272 4.384 11.36 8.8 14.592 11.808l35.456-19.68a80.32 80.32 0 0 1-4.384-24.736c0-41.312 30.752-75.744 71.104-81.056 1.056-6.752 2.464-17.632 2.464-26.176s-1.408-19.424-2.464-26.176zM178.56 55.36v42.816c0 145.632 112.384 265.568 255.488 279.072l-0.064 0.064h0.384c8.768 0.8 17.664 1.28 26.656 1.28l4.032-0.096c31.648 2.432 79.52 9.888 104.576 32.192l12.288 9.568c47.84 37.376 75.328 93.12 75.328 153.056C657.216 680.672 569.184 768 460.96 768c-108.192 0-196.224-87.328-196.224-194.688 0-59.936 27.424-115.68 75.328-153.056l12.256-9.568-14.432-5.696C210.368 354.4 128 233.984 128 98.176v-67.872c0-13.76 11.328-24.992 25.28-24.992h369.472a255.776 255.776 0 0 0-30.56 50.048H178.56z m136.768 517.952c0 79.712 65.344 144.608 145.664 144.608 80.352 0 145.696-64.832 145.696-144.608s-65.344-144.64-145.696-144.64c-80.32 0-145.664 64.896-145.664 144.64z"  horiz-adv-x="1024" />

    
    <glyph glyph-name="xiugaimima" unicode="&#58911;" d="M819.2-108.8H204.8c-64 0-108.8 57.6-108.8 121.6V320c0 70.4 44.8 128 108.8 128V537.6C204.8 723.2 339.2 876.8 512 876.8c172.8 0 307.2-153.6 307.2-339.2 0-19.2-12.8-32-25.6-32s-25.6 12.8-25.6 32c0 153.6-115.2 275.2-249.6 275.2-140.8 0-249.6-121.6-249.6-275.2V448h556.8c64 0 108.8-57.6 108.8-121.6v-307.2c-6.4-76.8-51.2-128-115.2-128z m57.6 428.8c0 32-25.6 64-57.6 64H204.8c-32 0-57.6-25.6-57.6-64v-307.2c0-32 25.6-64 57.6-64h614.4c32 0 57.6 25.6 57.6 64V320z m-339.2-179.2v-96c0-19.2-12.8-32-25.6-32s-25.6 12.8-25.6 32v96c-32 12.8-57.6 44.8-57.6 83.2C428.8 281.6 467.2 320 512 320c44.8 0 83.2-38.4 83.2-89.6 0-38.4-25.6-76.8-57.6-89.6zM512 262.4c-12.8 0-25.6-12.8-25.6-32s12.8-32 25.6-32 25.6 12.8 25.6 32-12.8 32-25.6 32z m0 0"  horiz-adv-x="1024" />

    
    <glyph glyph-name="gouwuche1" unicode="&#58917;" d="M955 686.8c-3.7 4.6-9.3 7.2-15.1 7.2H275l-13.4 70.1c-1.8 9.2-9.8 15.9-19.2 15.9H84.2c-10.8 0-19.5-8.8-19.5-19.5 0-10.8 8.8-19.5 19.5-19.5h142l13-68c0.1-0.8 0.1-1.6 0.2-2.4l3.9-19.3L335 172.5c1.8-9.2 9.8-15.9 19.2-15.9h476.1c10.8 0 19.5 8.8 19.5 19.5 0 10.8-8.8 19.5-19.5 19.5h-460l-15.6 81.6h508c9.3 0 17.3 6.5 19.2 15.6L959 670.6c1.1 5.7-0.3 11.7-4 16.2zM846.8 316.5H351.6l-69.1 338.4h633.4l-69.1-338.4zM455 44.8m-56.8 0a56.8 56.8 0 1 1 113.6 0 56.8 56.8 0 1 1-113.6 0ZM773.6 44.8m-56.8 0a56.8 56.8 0 1 1 113.6 0 56.8 56.8 0 1 1-113.6 0Z"  horiz-adv-x="1024" />

    
    <glyph glyph-name="accountnum" unicode="&#58982;" d="M920 744v-720h-816v720h816M960 784h-896v-800h896v800zM424.9 605c57.9 0 105-47.1 105-105s-47.1-105-105-105-105 47.1-105 105 47.1 105 105 105M424.9 645c-80.1 0-145-64.9-145-145s64.9-145 145-145 145 64.9 145 145-64.9 145-145 145zM185.8 128.2c3.2 14.3 7.6 28.3 13.4 41.9 12.3 29.2 30 55.4 52.5 77.9 22.5 22.5 48.7 40.2 77.9 52.5 30.2 12.8 62.3 19.2 95.4 19.2s65.2-6.5 95.4-19.2c29.2-12.3 55.4-30 77.9-52.5 22.5-22.5 40.2-48.7 52.5-77.9 5.8-13.6 10.2-27.6 13.4-41.9h40.8c-25 131.8-140.8 231.5-280 231.5s-255-99.7-280-231.5h40.8zM739.3 596v-40h120v40h-120zM687.5 460.2h171.8v40h-171.8v-40zM687.5 364.4h171.8v40h-171.8v-40z"  horiz-adv-x="1024" />

    
    <glyph glyph-name="list_dingdanshenhe" unicode="&#58948;" d="M762.88 759.466667h-512c-47.786667 0-85.333333-37.546667-85.333333-85.333334v-460.8l204.8-221.866666h392.533333c47.786667 0 85.333333 37.546667 85.333333 85.333333V674.133333c0 47.786667-37.546667 85.333333-85.333333 85.333334z m-375.466667-716.8l-170.666666 187.733333h170.666666v-187.733333z m409.6 0h-375.466666V213.333333c0 29.013333-22.186667 51.2-51.2 51.2h-153.6V708.266667h580.266666v-665.6zM500.053333 283.306667l208.213334 225.28-25.6 23.893333-187.733334-203.093333-148.48 119.466666-20.48-27.306666 170.666667-136.533334 3.413333-1.706666z"  horiz-adv-x="1024" />

    
    <glyph glyph-name="shangcheng" unicode="&#59304;" d="M856.192-96H167.808c-39.488 0-71.552 35.968-71.552 80.064V416h64v-431.936c0-10.368 5.696-16.064 7.552-16.064h688.384c1.856 0 7.616 5.696 7.616 16.064V416h64v-431.936c0-44.096-32.128-80.064-71.616-80.064zM679.424 154.304H344.512c-39.424 0-71.552 34.368-71.552 76.672V409.408h64v-178.432c0-7.616 4.544-12.672 7.552-12.672h334.912c3.072 0 7.552 4.928 7.552 12.672V409.408h64v-178.432c0-42.304-32.128-76.672-71.552-76.672zM897.984 369.536c-38.4 0-73.152 17.28-96.512 44.928a126.144 126.144 0 0 0-193.152-0.064c-23.232-27.52-57.92-44.8-96.256-44.864h-0.384a125.952 125.952 0 0 0-96 44.864 126.336 126.336 0 0 0-193.152 0.064 126.144 126.144 0 0 0-96.576-44.928A127.04 127.04 0 0 0 0.192 482.112l2.368 35.968c0.256 3.2 1.024 6.4 2.24 9.344L101.312 765.44c1.664 4.224 17.088 41.024 43.712 68.608C168.896 858.816 206.848 864 234.496 864c8 0 13.12-0.448 13.12-0.448l530.88 0.128c0.512 0.064 4.928 0.32 11.008 0.32 27.648 0 65.6-5.184 89.408-29.888 26.688-27.648 42.048-64.448 43.712-68.544l96.576-238.016c1.28-3.008 1.984-6.208 2.24-9.408l2.432-29.632c-7.616-70.592-61.696-118.976-125.888-118.976z m-99.008 148.672c16.256 0 34.88-12.16 36.736-28.352a63.04 63.04 0 0 1 62.272-56.256 63.104 63.104 0 0 1 62.272 56l-1.984 17.92-94.912 233.92c-0.128 0.256-12.096 29.12-30.528 48.192-4.864 5.184-20.288 10.368-43.328 10.368l-7.616-0.192-537.088-0.128-10.304 0.32c-23.04 0-38.4-5.184-43.392-10.368-18.368-19.072-30.4-48-30.528-48.256L65.984 507.968l-2.112-24.768c3.648-25.536 30.4-49.664 62.08-49.664a63.04 63.04 0 0 1 62.336 56.256c1.792 16.192 15.488 28.416 31.744 28.416s34.88-12.224 36.736-28.416a62.976 62.976 0 0 1 62.272-56.256c32 0 58.752 24.256 62.272 56.448 1.792 16.256 15.552 28.544 31.872 28.544s34.88-12.288 36.672-28.544a62.912 62.912 0 0 1 62.208-56.448c31.872 0 58.624 24.32 62.144 56.512 1.792 16.192 15.488 28.48 31.808 28.48s34.816-12.288 36.608-28.48a63.04 63.04 0 0 1 62.336-56.512 62.976 62.976 0 0 1 62.272 56.256 31.936 31.936 0 0 0 31.744 28.416z"  horiz-adv-x="1024" />

    
    <glyph glyph-name="gengduo" unicode="&#58882;" d="M614.4 384a102.4 102.4 0 1 0-204.8 0 102.4 102.4 0 0 0 204.8 0z m332.8 0a102.4 102.4 0 1 0-204.8 0 102.4 102.4 0 0 0 204.8 0z m-665.6 0a102.4 102.4 0 1 0-204.8 0 102.4 102.4 0 0 0 204.8 0z"  horiz-adv-x="1024" />

    
    <glyph glyph-name="fanhui-baise" unicode="&#58883;" d="M726.3744 67.6352L410.112 384l316.3136 316.3648a54.6304 54.6304 0 1 1-77.2096 77.2096L294.1952 422.6048a54.6304 54.6304 0 0 1 0-77.2096l354.9696-354.9696a54.5792 54.5792 0 1 1 77.2096 77.2096"  horiz-adv-x="1024" />

    
    <glyph glyph-name="fanhui-heise" unicode="&#58884;" d="M726.3744 67.6352L410.112 384l316.3136 316.3648a54.6304 54.6304 0 1 1-77.2096 77.2096L294.1952 422.6048a54.6304 54.6304 0 0 1 0-77.2096l354.9696-354.9696a54.5792 54.5792 0 1 1 77.2096 77.2096"  horiz-adv-x="1024" />

    
    <glyph glyph-name="guanbi" unicode="&#58885;" d=""  horiz-adv-x="1024" />

    
    <glyph glyph-name="qianjin" unicode="&#58886;" d="M589.824 384.6144l-208.0768-208.0768a35.9424 35.9424 0 1 1 50.7904-50.7904l233.472 233.472a35.9424 35.9424 0 0 1 0 50.7904l-233.472 233.472a35.8912 35.8912 0 1 1-50.7904-50.8416l208.0256-208.0256z"  horiz-adv-x="1024" />

    
    <glyph glyph-name="jiang" unicode="&#58887;" d="M618.632533-100.829867c-84.7872-5.7344-172.373333-9.8304-256.546133 5.256534a395.741867 395.741867 0 0 0-265.557333 181.521066C43.554133 172.168533 34.065067 272.9984 34.133333 372.1216c0.068267 99.191467 9.352533 199.816533 62.395734 286.173867C210.466133 844.049067 421.888 861.047467 618.632533 845.073067c112.2304-9.147733 216.200533-63.0784 285.149867-152.917334 60.074667-78.165333 77.960533-167.253333 83.7632-263.236266 6.894933-115.5072 1.501867-241.937067-60.484267-342.971734a395.946667 395.946667 0 0 0-308.4288-186.7776zM284.672 327.338667v-48.605867h187.323733c-29.832533-46.626133-96.256-80.554667-199.338666-101.512533l20.343466-46.08c114.0736 27.2384 188.893867 69.085867 223.914667 126.634666 29.9008-58.5728 101.034667-100.488533 214.084267-125.610666l20.343466 46.08c-97.826133 17.749333-164.795733 51.268267-200.362666 100.488533h189.917866V327.338667H537.3952c1.024 11.537067 2.048 23.552 2.048 37.205333h-48.128c0-13.653333-1.024-25.668267-2.594133-37.205333h-204.117334z m136.533333 284.125866V482.304c-41.301333-19.8656-88.951467-37.137067-142.813866-51.8144l19.8656-46.011733c46.08 14.609067 87.381333 30.3104 122.948266 48.128v-64.853334h50.244267V611.464533H421.205333z m-104.106666-18.8416l-26.624-39.253333c29.218133-13.585067 57.480533-32.904533 85.1968-57.5488l26.692266 41.3696a373.5552 373.5552 0 0 1-85.265066 55.432533z m260.096 19.933867c-17.339733-38.229333-50.312533-70.656-98.986667-97.348267l30.378667-39.799466a345.224533 345.224533 0 0 1 70.109866 55.5008h105.130667c-12.4928-24.098133-31.402667-45.533867-57.480533-63.829334a539.989333 539.989333 0 0 1-42.939734 41.847467l-33.9968-25.668267c13.1072-10.922667 26.624-23.483733 40.823467-37.614933-27.2384-13.653333-59.118933-24.576-96.256-33.450667l24.029867-43.485866c120.354133 31.402667 192.034133 86.357333 215.04 165.341866V575.829333H612.693333c5.802667 9.966933 10.990933 20.411733 15.223467 30.856534l-50.7904 5.802666z"  horiz-adv-x="1024" />

    
    <glyph glyph-name="re" unicode="&#58888;" d="M618.632533-100.829867c-84.7872-5.7344-172.373333-9.8304-256.546133 5.256534a395.741867 395.741867 0 0 0-265.557333 181.521066C43.554133 172.168533 34.065067 272.9984 34.133333 372.1216c0.068267 99.191467 9.352533 199.816533 62.395734 286.173867C210.466133 844.049067 421.888 861.047467 618.632533 845.073067c112.2304-9.147733 216.200533-63.0784 285.149867-152.917334 60.074667-78.165333 77.960533-167.253333 83.7632-263.236266 6.894933-115.5072 1.501867-241.937067-60.484267-342.971734a395.946667 395.946667 0 0 0-308.4288-186.7776z m115.3024 356.7616c10.103467 0 18.0224 5.12 24.849067 14.677334 9.557333 14.7456 15.7696 46.967467 18.568533 96.733866l-44.578133 22.050134c0-18.090667-1.092267-35.089067-2.798933-50.312534-2.2528-15.837867-5.12-24.3712-7.918934-24.3712-2.2528 0-5.12 5.12-8.465066 15.291734-7.918933 22.596267-11.332267 63.351467-11.332267 122.6752v115.370666H587.093333v67.7888h-57.617066v-67.7888h-57.5488v-57.685333h57.5488c-1.092267-24.302933-3.413333-47.5136-7.304534-68.949333-10.717867 6.7584-22.050133 13.5168-33.314133 20.343466l-31.061333-46.421333c15.837867-9.0112 31.607467-19.182933 47.445333-31.061333a222.958933 222.958933 0 0 0-73.454933-94.958934l43.485866-39.048533c32.768 25.463467 58.709333 57.685333 77.4144 96.733867 18.0224-15.291733 36.113067-32.768 54.203734-52.0192l33.314133 50.858666a718.984533 718.984533 0 0 1-66.628267 58.7776c7.850667 31.675733 12.424533 67.310933 13.5168 105.745067h57.617067v-57.685333c0-87.04 12.424533-144.725333 36.6592-171.8272 13.585067-15.837867 31.061333-24.3712 52.565333-24.917334zM261.3248 570.845867v-57.685334h73.386667v-81.92c-28.808533-6.280533-58.1632-11.332267-88.064-15.291733l14.062933-54.818133c24.849067 4.5056 49.152 9.557333 74.001067 14.677333v-48.059733c0-12.970667-5.666133-19.797333-15.837867-19.797334-14.677333 0-30.446933 1.706667-46.830933 3.959467l13.5168-56.5248h54.203733c36.181333 0 54.203733 19.182933 54.203733 57.685333V389.9392c19.2512 5.051733 38.434133 10.171733 57.617067 15.837867v56.5248l-57.617067-16.930134v67.7888h62.122667v57.685334h-62.122667v64.443733h-59.255466v-64.443733H261.3248z m55.842133-327.338667a410.555733 410.555733 0 0 0-68.266666-100.078933l48.469333-35.6352c26.0096 31.1296 49.152 68.4032 68.949333 111.957333l-49.152 23.7568z m141.789867-16.384l-55.364267-11.332267c10.171733-30.5152 19.182933-65.536 25.941334-105.745066l59.323733 14.199466a1066.052267 1066.052267 0 0 1-29.9008 102.877867z m116.872533 7.918933l-55.296-11.8784a539.989333 539.989333 0 0 0 38.912-111.957333l58.709334 14.1312c-12.424533 39.594667-26.555733 75.776-42.325334 109.704533z m107.246934 18.090667l-47.991467-30.037333c32.221867-41.7792 57.617067-79.6672 76.253867-113.595734l49.152 34.474667a884.3264 884.3264 0 0 1-77.4144 109.1584z"  horiz-adv-x="1024" />

    
    <glyph glyph-name="shanchu" unicode="&#58889;" d=""  horiz-adv-x="1024" />

    
    <glyph glyph-name="shanglabaise" unicode="&#58890;" d="M743.936 240.9472l-208.0768 208.0256-208.0768-208.0256a35.9424 35.9424 0 1 0-50.7904 50.7904l233.472 233.472a35.9424 35.9424 0 0 0 50.7904 0l233.472-233.472a35.8912 35.8912 0 1 0-50.7904-50.7904"  horiz-adv-x="1024" />

    
    <glyph glyph-name="xiala-baise" unicode="&#58891;" d="M733.44 527.0528l-208.0256-208.0256-208.0768 208.0256a35.9424 35.9424 0 1 1-50.7904-50.7904l233.472-233.472a35.9424 35.9424 0 0 1 50.7904 0l233.472 233.472a35.8912 35.8912 0 1 1-50.8416 50.7904"  horiz-adv-x="1024" />

    
    <glyph glyph-name="weizhi" unicode="&#58892;" d="M457.7792 494.7968c0 30.6176 24.2688 55.4496 54.2208 55.4496s54.272-24.832 54.272-55.4496S541.9008 439.296 512 439.296a54.8352 54.8352 0 0 0-54.2208 55.5008z m-169.472-6.0416c0-126.464 193.0752-395.9296 223.6928-395.9296 30.6176 0 223.744 269.5168 223.744 395.9296 0 126.4128-100.1984 228.864-223.744 228.864-123.5456 0-223.744-102.4512-223.744-228.864z"  horiz-adv-x="1024" />

    
    <glyph glyph-name="xiala-heise" unicode="&#58893;" d="M733.44 527.0528l-208.0256-208.0256-208.0768 208.0256a35.9424 35.9424 0 1 1-50.7904-50.7904l233.472-233.472a35.9424 35.9424 0 0 1 50.7904 0l233.472 233.472a35.8912 35.8912 0 1 1-50.8416 50.7904"  horiz-adv-x="1024" />

    
    <glyph glyph-name="xin" unicode="&#58894;" d="M618.632533-88.6784c-84.7872-5.7344-172.373333-9.8304-256.546133 5.256533a395.741867 395.741867 0 0 0-265.557333 181.521067C43.554133 184.388267 34.065067 285.149867 34.133333 384.273067 34.2016 483.464533 43.485867 584.021333 96.529067 670.446933 210.466133 856.200533 421.888 873.198933 618.632533 857.224533c112.2304-9.079467 216.200533-63.0784 285.149867-152.917333 60.074667-78.165333 77.960533-167.253333 83.7632-263.236267 6.894933-115.5072 1.501867-241.937067-60.484267-342.971733a395.946667 395.946667 0 0 0-308.4288-186.7776zM714.069333 615.424c-50.107733-19.387733-106.2912-29.627733-169.710933-30.651733v-221.7984c-2.048-75.093333-17.885867-133.870933-46.421333-176.3328l38.229333-40.3456c37.341867 54.203733 57.275733 126.293333 59.8016 216.6784v48.5376h55.227733v-266.24h52.6336v266.24h47.035734v50.5856H595.968v79.189333a564.565333 564.565333 0 0 1 144.110933 26.077867l-26.0096 48.059733z m-426.734933-35.771733v-49.083734h234.564267v49.152H428.987733a667.8528 667.8528 0 0 1-17.885866 44.373334l-55.227734-9.147734c7.168-10.786133 13.789867-22.528 19.933867-35.293866H287.402667z m-5.12-116.053334v-48.469333h97.0752v-41.437867H290.474667v-48.469333h88.8832v-121.173333c0-9.693867-6.144-14.813867-17.339734-14.813867-6.144 0-13.312 1.501867-20.957866 3.549867l11.741866-49.015467h26.624c35.2256 0 53.111467 15.837867 53.111467 47.5136V325.2224h83.831467V373.76H432.5376v41.437867H524.970667v48.469333h-49.5616c6.621867 14.882133 12.765867 30.72 18.909866 48.059733l-47.5136 16.930134c-5.666133-22.528-12.288-43.963733-19.933866-64.9216h-45.056a596.3776 596.3776 0 0 1-21.9136 64.853333l-47.035734-17.8176c8.192-14.336 15.36-30.173867 21.504-47.104h-52.155733z m36.864-158.378666a380.586667 380.586667 0 0 0-46.08-117.5552l44.509867-28.0576c21.435733 38.2976 37.819733 83.285333 49.5616 135.3728l-48.059734 10.24zM484.693333 308.360533l-43.963733-11.741866c11.195733-30.173867 20.957867-61.303467 28.603733-93.047467l44.987734 17.408c-7.168 26.624-17.408 55.7056-29.627734 87.381333z"  horiz-adv-x="1024" />

    
    <glyph glyph-name="diannao" unicode="&#58895;" d="M742.4 186.112h-140.8v-80.4864h40.192a20.1216 20.1216 0 1 0 0-40.2432H400.384a20.1216 20.1216 0 1 0 0 40.2432h40.2432v80.4864H279.6544a80.4864 80.4864 0 0 0-80.4352 80.4352V628.736c0 44.4416 35.9936 80.4352 80.4352 80.4352H742.4c44.3904 0 80.4352-35.9936 80.4352-80.4352v-362.1376c0-44.3904-36.0448-80.4352-80.4352-80.4352z m-181.0944-80.4864v80.4864H480.8704v-80.4864h80.4352zM782.592 628.736a40.2432 40.2432 0 0 1-40.192 40.2432H279.6544a40.2432 40.2432 0 0 1-40.2432-40.2432v-281.6h543.232v281.6z m0-321.8944H239.4112v-40.2432c0-22.2208 18.0224-40.192 40.2432-40.192H742.4a40.2432 40.2432 0 0 1 40.192 40.192v40.2432z"  horiz-adv-x="1024" />

    
    <glyph glyph-name="wodeweijihuo" unicode="&#58896;" d="M553.173333 401.493333a240.426667 240.426667 0 1 0 0 480.853334 240.426667 240.426667 0 0 0 0-480.853334z m0 416.64a176.426667 176.426667 0 1 1 0-352.853333 176.426667 176.426667 0 0 1 0 352.853333zM868.906667-104.106667H151.893333a77.013333 77.013333 0 0 0-60.373333 29.866667 90.453333 90.453333 0 0 0-16.853333 76.373333c39.253333 166.186667 144.213333 300.373333 280.746666 359.253334a107.946667 107.946667 0 0 0 83.2 0 303.786667 303.786667 0 0 1 190.506667-12.586667 106.666667 106.666667 0 0 0 81.92-11.093333c114.773333-67.626667 200.32-189.866667 234.666667-336a90.666667 90.666667 0 0 0-16.64-76.373334c-14.506667-18.474667-36.693333-29.312-60.16-29.44z m-471.466667 410.026667a42.666667 42.666667 0 0 1-16.64-3.413333c-117.973333-50.773333-209.066667-168.533333-243.84-315.093334a26.026667 26.026667 0 0 1 4.48-21.333333c2.346667-3.413333 6.144-5.546667 10.24-5.76H868.693333a13.44 13.44 0 0 1 10.24 5.76 26.026667 26.026667 0 0 1 4.48 21.333333c-30.506667 128-105.173333 236.586667-204.8 295.466667a42.666667 42.666667 0 0 1-33.28 4.266667 368.213333 368.213333 0 0 0-230.826666 15.36 45.226667 45.226667 0 0 1-17.066667 3.413333z"  horiz-adv-x="1024" />

    
    <glyph glyph-name="dianjingweijihuo" unicode="&#58897;" d="M655.805217-100.173913a268.466087 268.466087 0 0 0-103.735652 24.264348 3933.718261 3933.718261 0 0 1-433.864348 140.688695A53.203478 53.203478 0 0 1 60.549565 50.086957a33.836522 33.836522 0 0 0-42.518261-9.794783 33.168696 33.168696 0 0 0-16.250434 39.846956l61.217391 181.871305a33.52487 33.52487 0 1 0 63.220869-22.26087l-35.84-105.961739c14.959304 0.979478 30.007652-0.445217 44.52174-4.229565A4014.302609 4014.302609 0 0 0 578.782609-14.469565c109.078261-46.970435 137.794783 4.452174 151.373913 29.161739 13.57913 24.709565 63.666087 170.295652 92.382608 258.003478a33.391304 33.391304 0 0 0 63.443479-20.925217c-7.791304-23.596522-76.8-231.513043-97.502609-268.688696a144.473043 144.473043 0 0 0-132.674783-83.255652zM993.28-9.794783a339.478261 339.478261 0 0 0-216.375652 82.142609 33.391304 33.391304 0 0 0 42.073043 51.867826 267.130435 267.130435 0 0 1 284.493913-42.963478c17.363478 60.326957 78.58087 306.532174-18.031304 496.862609-50.532174 98.615652-137.794783 168.514783-259.116522 206.580869C487.067826 892.66087 326.344348 640 324.786087 637.328696A34.014609 34.014609 0 1 0 267.130435 673.391304c1.78087 2.893913 190.107826 299.631304 578.782608 176.528696 139.130435-44.521739 239.749565-125.551304 298.74087-241.975652 122.88-242.643478 22.26087-548.953043 17.363478-561.864348a33.391304 33.391304 0 0 0-17.586087-19.589565 358.622609 358.622609 0 0 0-151.151304-36.285218zM486.845217 260.006957a59.213913 59.213913 0 0 0-19.366956 3.33913c-148.925217 59.881739-363.52 80.806957-404.925218 84.368696a33.52487 33.52487 0 1 0 5.787827 66.782608c58.991304-5.12 258.893913-26.045217 409.822608-83.255652l25.6 89.043478a33.435826 33.435826 0 0 0 64.333913-18.253913l-30.052174-105.516521a33.836522 33.836522 0 0 0-1.55826-4.452174c-8.815304-19.500522-28.226783-32.055652-49.64174-32.055652z"  horiz-adv-x="1246" />

    
    <glyph glyph-name="zuobiao" unicode="&#58898;" d="M492.730182-75.682909c-11.077818 0-16.756364 1.582545-21.038546 5.771636-2.141091 2.606545-235.892364 279.458909-297.890909 413.975273A357.096727 357.096727 0 0 0 139.636364 495.336727C139.636364 687.104 297.797818 843.682909 492.730182 843.682909c194.932364 0 353.000727-157.044364 353.000727-350.394182 0-58.368-10.984727-102.4-37.794909-152.389818-74.100364-137.588364-292.119273-407.179636-294.167273-409.786182-2.699636-3.165091-7.447273-6.330182-20.48-6.330182l-0.558545-0.465454z m0 724.992a156.020364 156.020364 0 1 1 0-312.133818 156.020364 156.020364 0 0 1 0 312.133818z"  horiz-adv-x="1024" />

    
    <glyph glyph-name="renwu" unicode="&#58899;" d="M479.6416 825.4464c142.4384 0 238.1824-147.5584 228.864-283.4432-9.4208-135.7824-75.3664-164.0448-103.6288-237.3632-18.7392-48.7424 2.8672-80.6912 65.024-95.5392l195.584-78.336c40.1408-23.4496 60.2112-57.7536 60.2112-102.8096 0-67.584-44.032-86.1184-100.0448-86.1184H128.8192C69.5296-51.8144 39.936-27.648 39.936 14.336c0 63.0784 38.0928 105.6768 83.7632 124.1088 30.5152 12.288 103.424 44.544 219.0336 96.5632 21.4016 20.992 23.1424 46.4896 5.12 76.3904-26.7264 44.7488-85.2992 130.4576-96.768 204.288-11.4688 73.728 21.0944 182.9888 74.9568 241.664 53.8624 58.7776 128 68.096 153.6 68.096z"  horiz-adv-x="1024" />

    
    <glyph glyph-name="renshu" unicode="&#58900;" d="M433.803636 344.250182c0-23.831273-15.825455-39.656727-39.749818-39.656727-123.066182-23.831273-238.312727-123.159273-238.312727-278.062546 0-23.831273-15.825455-39.749818-39.656727-39.749818S76.334545 2.699636 76.334545 26.530909c0 142.987636 83.409455 266.146909 206.568728 321.722182-75.496727 51.665455-127.162182 134.981818-127.162182 234.309818A276.293818 276.293818 0 0 0 433.803636 860.625455c23.831273 0 39.749818-15.825455 39.749819-39.749819 0-23.831273-15.918545-39.656727-39.749819-39.656727a196.701091 196.701091 0 0 1-198.562909-198.656s-4.002909-138.984727 150.900364-194.56c0 0 47.662545-4.002909 47.662545-43.752727zM394.053818 503.156364A276.293818 276.293818 0 0 0 672.116364 781.218909a276.293818 276.293818 0 0 0 278.062545-278.062545c0-99.328-51.665455-182.737455-127.162182-234.309819a351.232 351.232 0 0 0 206.568728-321.722181c0-23.831273-15.825455-39.749818-39.749819-39.749819-23.831273 0-39.656727 15.825455-39.656727 39.749819A276.293818 276.293818 0 0 1 672.116364 225.093818a276.293818 276.293818 0 0 1-278.062546-277.969454c0-23.831273-15.825455-39.749818-39.656727-39.749819s-39.749818 15.825455-39.749818 39.749819c0 142.987636 83.409455 266.053818 206.568727 321.722181-51.665455 35.746909-67.584 59.578182-87.412364 91.322182-43.752727 71.493818-39.749818 142.987636-39.749818 142.987637z m476.625455 0A196.701091 196.701091 0 0 1 672.116364 701.719273 196.701091 196.701091 0 0 1 473.553455 503.156364c0-111.243636 87.319273-198.562909 198.562909-198.562909A196.701091 196.701091 0 0 1 870.679273 503.156364z"  horiz-adv-x="1117" />

    
    <glyph glyph-name="fenxiang" unicode="&#58901;" d="M987.52 480.256V256.64c0-197.952-164.16-358.976-365.952-358.976H393.472C191.68-102.4 27.52 58.624 27.52 256.576V480.256c0 198.016 164.16 359.04 365.952 359.04h228.096c23.04 0 41.6-18.304 41.6-40.832a40.256 40.256 0 0 0-12.16-28.8 41.856 41.856 0 0 0-29.44-11.904H393.472c-155.968 0-282.816-124.48-282.816-277.504V256.64c0-152.96 126.848-277.44 282.88-277.44h228.032c155.968 0 282.88 124.416 282.88 277.44V480.256c0 11.264 4.608 21.504 12.16 28.8a41.856 41.856 0 0 0 29.376 11.968c22.912 0 41.6-18.176 41.6-40.768z m-18.048 237.504l-84.8-101.952a41.856 41.856 0 0 0-58.496-5.824 40.256 40.256 0 0 0-5.888 57.344l26.688 32.128a337.024 337.024 0 0 1-97.28-26.688c-24.96-11.456-47.168-26.048-66.496-43.84-54.72-50.432-75.648-116.608-83.584-157.696a253.184 253.184 0 0 1-4.8-38.208 41.28 41.28 0 0 0-41.6-40.064h-0.64a41.088 41.088 0 0 0-40.896 41.152c0.064 6.144 3.2 150.912 113.792 253.44 19.008 17.664 39.872 32.896 62.656 45.696a385.984 385.984 0 0 0 119.36 42.624l-10.496 6.528a40.32 40.32 0 0 0-12.864 56.256 42.112 42.112 0 0 0 57.344 12.608l118.08-73.28a40.192 40.192 0 0 0 9.984-60.16z"  horiz-adv-x="1024" />

    
    <glyph glyph-name="lishichangshu" unicode="&#58902;" d="M1232.896 808.504889c0.227556-30.72-30.037333-55.751111-67.697778-56.433778H150.983111C113.208889 752.64 83.057778 777.784889 83.057778 808.504889a50.972444 50.972444 0 0 0 19.342222 40.049778 77.368889 77.368889 0 0 0 48.469333 17.294222h1014.215111a77.368889 77.368889 0 0 0 48.469334-17.294222 50.972444 50.972444 0 0 0 19.342222-40.049778z m-67.697778-489.585778H150.983111c-35.271111 3.640889-61.781333 27.989333-61.781333 56.888889s26.510222 53.248 61.781333 56.888889h1014.215111c35.271111-3.640889 61.667556-27.989333 61.667556-56.888889s-26.510222-53.248-61.667556-56.888889z m67.697778-375.808c0.682667-31.061333-29.582222-56.661333-67.697778-57.344H150.983111c-35.271111 3.640889-61.781333 27.989333-61.781333 56.888889s26.510222 53.248 61.781333 56.888889h1014.215111a77.368889 77.368889 0 0 0 48.469334-17.294222 50.972444 50.972444 0 0 0 19.342222-40.049778v0.910222z"  horiz-adv-x="1251" />

    
    <glyph glyph-name="order" unicode="&#58903;" d="M703.901047 348.471066c155.261089 0 267.450985-130.173559 366.521128-245.115404 61.694843-71.550658 125.501647-145.661269 172.348769-145.661269 25.215527 0 42.175209 8.51184 54.91097 27.327488 54.142985 79.48651 18.68765 308.090223-46.847122 483.19094-94.462229 254.203234-189.564446 342.137585-245.499396 341.945589-66.814747 0-109.30995-27.071492-154.237109-55.614958-42.815197-27.135491-86.846372-55.102967-147.19724-55.102967-59.838878 0-103.99805 27.903477-146.493253 54.97497-45.567146 28.79946-87.99835 57.790916-156.157072 55.742955-56.318944 0-149.757192-89.726318-243.451435-341.88159-65.534771-175.164716-100.990106-403.832428-46.975119-483.254939 12.79976-18.815647 29.823441-27.327488 55.038968-27.327488 46.335131 0 109.949938 73.982613 171.324787 145.405274 99.070142 114.941845 211.388036 245.371399 366.713124 245.371399M1242.770944-128c-85.182403 0-155.133091 81.08648-236.091574 174.90872-87.038368 101.182103-185.852515 215.739955-302.714324 215.739955-117.053805 0-215.867952-114.813847-303.034318-215.99595C320.228241-47.105517 250.533548-128 165.863136-128c-52.863009 0-95.9982 22.207584-124.605664 64.318794-88.190346 129.725568-14.079736 424.568039 37.375299 562.357456C146.343502 680.624838 258.789393 898.348756 402.914691 895.9808 493.728988 895.9808 553.88786 857.837516 602.142955 827.18209c36.991306-23.48756 66.174759-41.983213 101.758092-41.983212 36.095323 0 65.278776 18.559652 102.270083 42.047211C854.362226 857.901514 914.201104 895.9808 1005.0794 895.9808h1.855966c144.701287 0 255.611207-216.123948 323.065942-397.432548 51.391036-137.661419 125.501647-432.503891 37.3113-562.293457-28.607464-42.047212-71.742655-64.254795-124.541664-64.254795M521.120475 559.155116h-55.678956v56.446941a42.559202 42.559202 0 0 1-42.111211 42.815198c-23.423561 0-42.303207-19.19964-42.303207-42.879196v-56.382943h-55.550958c-23.359562 0-42.239208-19.19964-42.239208-42.879196 0-23.743555 18.879646-42.879196 42.239208-42.879196h55.550958v-56.318944c0-23.743555 18.879646-42.943195 42.239208-42.943195 23.295563 0 42.239208 19.19964 42.239208 42.879196v56.318944h55.678956c23.359562 0 42.239208 19.19964 42.239208 42.879196 0 23.679556-18.879646 42.879196-42.239208 42.879196m456.695437-1.279976a51.519034 51.519034 0 0 1-51.071042-51.839028c0-28.607464 22.91157-51.967026 51.071042-51.967026 28.223471 0 51.19904 23.359562 51.19904 51.967026a51.519034 51.519034 0 0 1-51.19904 51.839028m0-181.756592c-70.526678 0-127.9976 58.238908-127.9976 129.917564 0 71.614657 57.470922 129.853565 127.9976 129.853565 70.590676 0 127.9976-58.238908 127.9976-129.917564 0-71.614657-57.406924-129.917564-127.9976-129.917564"  horiz-adv-x="1408" />

    
    <glyph glyph-name="order1" unicode="&#58904;" d="M557.568 222.5664c-22.528 0-40.7552 14.848-40.7552 33.28 0 18.3808 18.2272 33.28 40.7552 33.28h219.8016c22.528 0 40.7552-14.8992 40.7552-33.28 0-18.432-18.2272-33.28-40.7552-33.28H557.568z m0 331.8272c-22.528 0-40.7552 14.8992-40.7552 33.28 0 18.432 18.2272 33.28 40.7552 33.28h219.8016c22.528 0 40.7552-14.848 40.7552-33.28 0-18.3808-18.2272-33.28-40.7552-33.28H557.568zM440.7296 630.1184a31.2832 31.2832 0 0 1-44.288 44.288l-97.2288-97.28-50.9952 51.0464a31.2832 31.2832 0 0 1-44.288-44.2368l73.1648-73.216a31.2832 31.2832 0 0 1 44.2368 0l119.3984 119.3984z m-132.5056-268.288a113.4592 113.4592 0 1 1 0-226.9696 113.4592 113.4592 0 0 1 0 226.9184z m0-165.4784a52.0192 52.0192 0 1 0 0 103.936 52.0192 52.0192 0 0 0 0-103.936zM867.1744 879.4112H122.6752c-58.7264 0-106.3424-47.616-106.3424-106.3424v-744.5504c0-58.7264 47.616-106.3424 106.3424-106.3424h744.4992c58.7264 0 106.3936 47.616 106.3936 106.3424V773.12c0 58.7264-47.616 106.3424-106.3936 106.3424z m39.936-820.8384c0-38.6048-31.3344-69.9392-69.9392-69.9392H152.6784a69.9392 69.9392 0 0 0-69.888 69.9392V743.0144c0 38.6048 31.2832 69.888 69.888 69.888h684.4928c38.6048 0 69.888-31.232 69.888-69.888v-684.4416z"  horiz-adv-x="1024" />

    
    <glyph glyph-name="time" unicode="&#58905;" d="M509.269333 884.622222a456.476444 456.476444 0 0 1-457.386666-457.386666 457.955556 457.955556 0 0 1 457.386666-457.386667 456.476444 456.476444 0 0 1 457.386667 457.386667A457.955556 457.955556 0 0 1 509.269333 884.622222z m297.870223-595.740444a35.384889 35.384889 0 0 0-32.768-21.162667c-4.778667 0-9.443556 0-14.108445 2.389333l-269.653333 121.969778a36.750222 36.750222 0 0 0-21.162667 32.881778V678.229333c0 18.773333 16.384 35.271111 35.157333 35.271111s35.157333-16.497778 35.157334-35.271111v-232.106666l248.604444-112.64c18.773333-7.054222 25.827556-25.827556 18.773334-44.600889z"  horiz-adv-x="1024" />

    
    <glyph glyph-name="zhangdan1" unicode="&#58910;" d="M241.046 538.53c0-13.158 10.71-23.814 23.886-23.814h494.172c13.122 0 23.832 10.656 23.832 23.814 0 13.176-10.71 23.832-23.832 23.832H264.932c-13.176 0.017-23.886-10.638-23.886-23.832z m518.076-119.466h-494.19c-13.176 0-23.886-10.656-23.886-23.814s10.71-23.814 23.886-23.814h494.172c13.122 0 23.832 10.656 23.832 23.814s-10.692 23.814-23.814 23.814z m0-148.014H556.297c-13.176 0-23.832-10.656-23.832-23.814 0-13.176 10.656-23.814 23.832-23.814h202.825c13.122 0 23.832 10.62 23.832 23.814 0 13.157-10.71 23.814-23.832 23.814z m0-143.28H556.297c-13.176 0-23.832-10.656-23.832-23.814 0-13.176 10.656-23.832 23.832-23.832h202.825c13.122 0 23.832 10.656 23.832 23.832 0 13.158-10.71 23.814-23.832 23.814zM447.344 293.568L378.53 188.484l-68.454 105.084H266.46L344.833 177.7h-51.46v-28.061h66.005v-17.136h-66.006v-28.134h66.006v-46.764h37.71V104.37h66.024v28.134h-66.024V149.64h66.024v28.063H411.65l78.3 115.866zM855.458 730.878h-119.7v44.01c0 22.68-18.395 41.112-41.076 41.112H329.336c-22.68 0-41.076-18.432-41.076-41.112v-44.01h-119.7c-22.626 0-41.022-17.172-41.022-38.304v-702.271c-0.017-21.114 18.378-38.304 41.004-38.304h686.917c22.626 0 41.022 17.19 41.022 38.304V692.575c0 21.15-18.395 38.304-41.022 38.304zM335.87 683.215v85.103h352.26v-102.402H335.87v17.298z m513-683.55H175.13V683.214h113.112v-23.868c0-22.644 18.395-41.112 41.076-41.112h365.346c22.68 0 41.076 18.45 41.076 41.112v23.868h113.112v-683.55z"  horiz-adv-x="1024" />

    
    <glyph glyph-name="zhanduiyijiesan" unicode="&#58906;" d="M455.956135-120.371775a13.806742 13.806742 0 0 0-4.636764 0.805393C280.725573-58.425528 157.903101 67.445933 86.234607 254.538787 28.522427 405.285393 15.256449 563.303551 10.147955 684.112539c-0.115056 3.014472 0.73636 5.982921 2.473708 8.45663C73.520899 779.563146 255.700854 876.440449 455.162247 887.946067c0.529258 0.023011 1.058517 0.023011 1.587775 0 199.426876-11.505618 381.58382-108.371416 442.483057-195.365393 1.725843-2.473708 2.60027-5.442157 2.473708-8.456629-3.566742-83.887461-11.240989-194.916674-39.211147-309.938337a13.749213 13.749213 0 0 0-26.693033 6.489168c26.865618 110.545978 34.63191 217.82436 38.244674 299.859416C815.426157 759.428315 641.334652 849.528809 455.956135 860.44764 310.939326 851.864449 111.731056 780.966831 37.795955 680.534292c5.177528-118.093663 18.535551-271.07236 74.09618-416.158202 68.009708-177.577708 183.744719-297.454742 344.052494-356.398023 45.89591 16.901753 88.570247 38.946517 126.895461 65.593529a13.737708 13.737708 0 0 0 15.693663-22.551012c-41.604315-28.925124-88.017978-52.672719-137.95236-70.586966-1.49573-0.540764-3.072-0.805393-4.636764-0.805393zM402.24791 155.843596l-114.780045 1.380674a30.190742 30.190742 0 0 0-25.151281 13.634157 30.386337 30.386337 0 0 0-2.554247 28.787056c19.847191 46.103011 49.681258 73.670472 70.644494 88.478202-30.443865 17.454022-77.478831 57.689169-83.588314 141.427057-3.566742 48.979416 11.240989 96.394067 40.614831 130.059505 27.46391 31.490876 66.813124 49.738787 113.779056 52.730247 0.575281 0.046022 1.173573 0.046022 1.748854 0 47.000449-2.991461 86.361169-21.239371 113.825079-52.764764 29.339326-33.676944 44.124045-81.068584 40.534292-130.036494-6.109483-83.737888-53.155955-123.973034-83.576809-141.427056 16.775191-11.850787 39.234157-31.893573 57.735191-63.062292a13.726202 13.726202 0 1 0-23.632539-14.013843c-28.672 48.323596-68.734562 65.812135-69.148764 65.973213a13.772225 13.772225 0 0 0 1.49573 25.853124c3.313618 0.989483 82.219146 25.807101 89.720809 128.678831 3.014472 41.098067-9.641708 82.20764-33.849528 109.982203-22.700584 26.037213-54.306517 40.614831-93.977888 43.341663-39.636854-2.715326-71.254292-17.292944-93.954876-43.318652-24.219326-27.763056-36.887011-68.89564-33.907056-109.993708 7.559191-103.596584 88.938427-128.448719 89.74382-128.690337a13.749213 13.749213 0 0 0 1.461214-25.876135c-0.47173-0.195596-52.316045-22.89618-80.42427-88.190562a2.876404 2.876404 0 0 1 0.253124-2.80737 2.761348 2.761348 0 0 1 2.381662-1.28863l114.618967-1.380674 107.899685 1.288629h0.161079a13.749213 13.749213 0 0 0 0.161078-27.486921l-108.233348-1.265618z m176.668764 139.240988c-2.910921 0-5.844854 0.920449-8.341573 2.830382-13.726202 10.516135-24.046742 14.957303-24.161798 15.003326a13.760719 13.760719 0 0 0 1.495731 25.853124c3.313618 0.989483 82.219146 25.807101 89.709303 128.690337 3.025978 41.098067-9.630202 82.20764-33.838022 109.970696-22.700584 26.037213-54.306517 40.59182-93.966382 43.295641-18.696629-1.288629-35.736449-5.246562-50.647731-11.781753a13.737708 13.737708 0 1 0-11.022382 25.185798c18.086831 7.90436 38.54382 12.65618 60.772674 14.082876 0.586787 0.034517 1.173573 0.034517 1.76036 0 46.988944-2.991461 86.338157-21.21636 113.813573-52.718741 29.350831-33.676944 44.135551-81.068584 40.545798-130.048-6.109483-83.749393-53.155955-123.984539-83.588315-141.427057 1.886921-1.334652 3.831371-2.761348 5.833348-4.291595a13.726202 13.726202 0 0 0-8.364584-24.645034zM801.653933-86.809888a216.225079 216.225079 0 0 0-145.523057 56.147416 217.041978 217.041978 0 0 0-70.092224 181.834787c1.380674 14.002337 4.119011 27.843596 8.145977 41.178606a217.444674 217.444674 0 0 0 46.770337 82.782922A217.053483 217.053483 0 0 0 801.653933 346.491685c27.567461 0 54.421573-5.108494 79.837483-15.187415 83.116584-32.963596 136.813303-112.041708 136.813303-201.463371 0-119.462831-97.187955-216.650787-216.650786-216.650787z m0 405.826158a189.520539 189.520539 0 0 1-140.322517-62.314427 188.78418 188.78418 0 0 1-48.852854-126.860944c0-53.282517 22.643056-104.355955 62.107326-140.138427a188.807191 188.807191 0 0 1 127.068045-49.036944c104.309933 0 189.175371 84.865438 189.17537 189.175371 0 78.088629-46.896899 147.133843-119.474337 175.920899a188.208899 188.208899 0 0 1-69.701033 13.254472z m0.230112-295.257169a18.547056 18.547056 0 0 0-12.966832 5.361618 18.61609 18.61609 0 0 0-5.361617 12.955326c0 4.809348 1.967461 9.526652 5.361617 12.966831 4.257079 4.257079 10.585169 6.178517 16.533574 4.993439a20.088809 20.088809 0 0 0 6.592719-2.703821 18.61609 18.61609 0 0 0 8.157483-15.256449c0-4.809348-1.978966-9.526652-5.361618-12.955326a21.745618 21.745618 0 0 0-2.795865-2.301123 20.11182 20.11182 0 0 0-6.592719-2.692315c-1.185079-0.230112-2.381663-0.36818-3.566742-0.36818z m-0.460225 57.125393c-7.593708 0-13.737708 6.155506-13.737708 13.749214V217.605753a13.737708 13.737708 0 1 0 27.486922 0V94.633708c0-7.593708-6.155506-13.749213-13.749214-13.749214z"  horiz-adv-x="1024" />

    
    <glyph glyph-name="zhanghao" unicode="&#59000;" d="M512 332.8c-155.136 0-281.6 126.464-281.6 281.6S356.864 896 512 896s281.6-126.464 281.6-281.6-126.464-281.6-281.6-281.6z m0 512c-126.976 0-230.4-103.424-230.4-230.4s103.424-230.4 230.4-230.4 230.4 103.424 230.4 230.4-103.424 230.4-230.4 230.4zM512-128H102.4c-14.336 0-25.6 11.264-25.6 25.6 0 183.296 59.904 277.504 110.592 324.608C244.224 274.944 302.08 281.088 304.64 281.6c13.824 1.536 26.624-8.704 28.16-23.04 1.536-13.824-8.704-26.624-22.528-28.16-7.68-1.024-172.032-24.064-181.76-307.2H512c14.336 0 25.6-11.264 25.6-25.6s-11.264-25.6-25.6-25.6zM927.232-128h-409.6c-14.336 0-25.6 11.264-25.6 25.6s11.264 25.6 25.6 25.6H901.12c-9.728 286.208-179.712 307.2-181.248 307.2-13.824 1.536-24.064 13.824-23.04 28.16s13.824 24.064 28.16 23.04c2.56 0 60.416-6.656 117.248-59.392 50.688-46.592 110.592-140.8 110.592-324.608 0-14.336-11.776-25.6-25.6-25.6z"  horiz-adv-x="1024" />

    
    <glyph glyph-name="wulianwang-" unicode="&#58912;" d="M701.9008-46.1824H242.8672a97.28 97.28 0 0 0-97.1776 97.1776V717.0048a97.28 97.28 0 0 0 97.1776 97.1776H732.672a97.28 97.28 0 0 0 97.1776-97.1776V63.744a12.8 12.8 0 0 0-25.6 0V717.0048a71.6544 71.6544 0 0 1-71.5776 71.5776H242.8672a71.6544 71.6544 0 0 1-71.5776-71.5776v-666.0352a71.6544 71.6544 0 0 1 71.5776-71.5776h459.0336a12.8 12.8 0 0 0 0-25.5744zM495.5392 477.2864l-7.9616 3.6608c-4.2752 1.8432-6.7328 6.7328-6.7328 11.6224a63.5904 63.5904 0 0 1 0 15.2832 11.52 11.52 0 0 0 6.7328 11.6224l7.9616 3.6864c5.504 2.432 8.576 9.1648 6.1184 14.6944l-3.6608 8.576-3.6608 8.576a12.16 12.16 0 0 1-14.6944 6.7328l-7.9616-3.072a11.3664 11.3664 0 0 0-12.8512 3.6608 178.4576 178.4576 0 0 1-10.3936 11.008 12.7488 12.7488 0 0 0-3.6608 12.8512l3.0464 7.9616c2.4576 5.504-0.6144 12.2368-6.1184 14.6944l-17.1264 7.3472a11.2384 11.2384 0 0 1-14.6944-5.504l-3.6608-7.9616c-1.8432-4.2752-6.7328-6.7328-11.6224-6.7328a63.5904 63.5904 0 0 1-15.2832 0 11.52 11.52 0 0 0-11.6224 6.7328l-3.6608 7.9616c-2.4576 5.504-9.1648 8.576-14.6944 6.1184l-8.576-3.6608-8.576-3.6608a12.16 12.16 0 0 1-6.7328-14.6944l3.0464-7.9616a11.3664 11.3664 0 0 0-3.6608-12.8512c-3.6608-3.072-7.3472-6.7328-11.008-10.3936a12.7488 12.7488 0 0 0-12.8512-3.6608l-7.9616 3.0464c-5.504 2.4576-12.2368-0.6144-14.6944-6.1184l-3.6608-8.576-3.6608-8.576a11.2384 11.2384 0 0 1 5.504-14.6944l7.9616-3.6608c4.2752-1.8432 6.7328-6.7328 6.7328-11.6224a63.5904 63.5904 0 0 1 0-15.2832 11.52 11.52 0 0 0-6.7328-11.6224l-7.9616-3.6608c-5.504-2.4576-8.576-9.1904-6.1184-14.6944l7.3472-17.1264a12.16 12.16 0 0 1 14.6944-6.7328l7.9616 3.072a11.3664 11.3664 0 0 0 12.8512-3.6608c3.0464-3.6608 6.7328-7.3472 10.3936-11.008a12.7488 12.7488 0 0 0 3.6608-12.8512l-3.0464-7.9616c-2.4576-5.504 0.6144-12.2368 6.1184-14.6944l8.576-3.6608 8.576-3.6608c5.504-2.4576 12.2368 0 14.6944 5.504l3.6608 7.9616c1.8432 4.2752 6.7328 6.7328 11.6224 6.7328 4.8896-0.6144 10.3936-0.6144 15.3088 0a11.52 11.52 0 0 0 11.6224-6.7328l3.6608-7.9616c2.4576-5.504 9.1648-8.576 14.6944-6.1184l17.1264 7.3472a12.16 12.16 0 0 1 6.7328 14.6944l-3.072 7.9616a11.3664 11.3664 0 0 0 3.6608 12.8512c3.6608 3.0464 7.3472 6.7328 11.008 10.3936a12.7744 12.7744 0 0 0 12.8512 3.6608l7.9616-3.0464c5.504-2.4576 12.2368 0.6144 14.6944 6.1184l7.3472 17.1264a11.2384 11.2384 0 0 1-5.5552 14.6176z m-67.9168 6.1184a45.1328 45.1328 0 0 0-59.3408-23.8592 45.1328 45.1328 0 0 0-23.8592 59.3408 44.928 44.928 0 0 0 59.3408 23.8592 45.1072 45.1072 0 0 0 23.8592-59.3408zM699.2896 575.3344h-132.1472a21.4528 21.4528 0 0 0-21.4528 21.4528v0.1536c0 11.8528 9.6 21.4528 21.4528 21.4528h132.1472c11.8528 0 21.4528-9.6 21.4528-21.4528v-0.1536a21.4528 21.4528 0 0 0-21.4528-21.4528zM699.2896 469.632h-132.1472a21.4528 21.4528 0 0 0-21.4528 21.4528v0.1536c0 11.8528 9.6 21.4528 21.4528 21.4528h132.1472c11.8528 0 21.4528-9.6 21.4528-21.4528v-0.1536a21.4528 21.4528 0 0 0-21.4528-21.4528zM699.2896 363.904h-132.1472a21.4528 21.4528 0 0 0-21.4528 21.4528v0.1536c0 11.8528 9.6 21.4528 21.4528 21.4528h132.1472c11.8528 0 21.4528-9.6 21.4528-21.4528v-0.1536a21.4528 21.4528 0 0 0-21.4528-21.4528zM699.2896 258.176H276.2752a21.4528 21.4528 0 0 0-21.4528 21.4528v0.1792c0 11.8528 9.6 21.4528 21.4528 21.4528h423.0144c11.8528 0 21.4528-9.6 21.4528-21.4528v-0.1536a21.4784 21.4784 0 0 0-21.4528-21.4784zM699.2896 152.4736H276.2752a21.4528 21.4528 0 0 0-21.4528 21.4528V174.08c0 11.8528 9.6 21.4528 21.4528 21.4528h423.0144c11.8528 0 21.4528-9.6 21.4528-21.4528v-0.1536a21.4528 21.4528 0 0 0-21.4528-21.4528zM817.0496-45.952c-33.7664 0-61.2608 27.4688-61.2608 61.2608s27.4688 61.2608 61.2608 61.2608 61.2608-27.4688 61.2608-61.2608-27.4944-61.2608-61.2608-61.2608z m0 96.896c-19.6608 0-35.6608-16-35.6608-35.6608s16-35.6608 35.6608-35.6608 35.6608 16 35.6608 35.6608-16 35.6608-35.6608 35.6608z"  horiz-adv-x="1024" />

    


  </font>
</defs>
</svg>
